HIERARCHY
ROOT Hips
{
	OFFSET 0.0000 0.0000 0.0000
	CHANNELS 6 Xposition Yposition Zposition Zrotation Xrotation Yrotation
	JOINT Ab
	{
		OFFSET -0.0000 8.1305 -0.0000
		CHANNELS 3 Zrotation Xrotation Yrotation
		JOINT Chest
		{
			OFFSET -0.0000 26.2902 -0.0000
			CHANNELS 3 Zrotation Xrotation Yrotation
			JOINT Neck
			{
				OFFSET -0.0000 26.2902 0.0000
				CHANNELS 3 Zrotation Xrotation Yrotation
				JOINT Head
				{
					OFFSET -0.0000 10.8167 0.0000
					CHANNELS 3 Zrotation Xrotation Yrotation
					End Site
					{
						OFFSET -0.0000 16.7167 0.0000
					}
				}
			}
			JOINT LeftCollar
			{
				OFFSET -0.0000 26.2902 0.0000
				CHANNELS 3 Zrotation Xrotation Yrotation
				JOINT LeftShoulder
				{
					OFFSET 19.6667 -0.0000 0.0000
					CHANNELS 3 Zrotation Xrotation Yrotation
					JOINT LeftElbow
					{
						OFFSET 27.2190 0.0000 0.0000
						CHANNELS 3 Zrotation Xrotation Yrotation
						JOINT LeftWrist
						{
							OFFSET 30.7431 0.0000 0.0000
							CHANNELS 3 Zrotation Xrotation Yrotation
							End Site
							{
								OFFSET 0.0000 -14.7500 0.0000
							}
						}
					}
				}
			}
			JOINT RightCollar
			{
				OFFSET -0.0000 26.2902 0.0000
				CHANNELS 3 Zrotation Xrotation Yrotation
				JOINT RightShoulder
				{
					OFFSET -19.6667 0.0000 0.0000
					CHANNELS 3 Zrotation Xrotation Yrotation
					JOINT RightElbow
					{
						OFFSET -27.2190 0.0000 0.0000
						CHANNELS 3 Zrotation Xrotation Yrotation
						JOINT RightWrist
						{
							OFFSET -30.7431 0.0000 0.0000
							CHANNELS 3 Zrotation Xrotation Yrotation
							End Site
							{
								OFFSET -0.0000 -14.7500 0.0000
							}
						}
					}
				}
			}
		}
	}
	JOINT LeftHip
	{
		OFFSET 11.8000 0.0000 0.0000
		CHANNELS 3 Zrotation Xrotation Yrotation
		JOINT LeftKnee
		{
			OFFSET -0.0000 -39.7832 0.0000
			CHANNELS 3 Zrotation Xrotation Yrotation
			JOINT LeftAnkle
			{
				OFFSET -0.0000 -41.7317 0.0000
				CHANNELS 3 Zrotation Xrotation Yrotation
				End Site
				{
					OFFSET -0.0000 -4.9167 16.7167
				}
			}
		}
	}
	JOINT RightHip
	{
		OFFSET -11.8000 0.0000 0.0000
		CHANNELS 3 Zrotation Xrotation Yrotation
		JOINT RightKnee
		{
			OFFSET -0.0000 -39.7832 0.0000
			CHANNELS 3 Zrotation Xrotation Yrotation
			JOINT RightAnkle
			{
				OFFSET -0.0000 -41.7317 0.0000
				CHANNELS 3 Zrotation Xrotation Yrotation
				End Site
				{
					OFFSET -0.0000 -4.9167 16.7167
				}
			}
		}
	}
}
MOTION
Frames: 13
Frame Time: 0.010000
-10.8682 90.4680 105.4126 357.4371 346.8818 187.5404 358.7137 350.1461 2.4675 1.8142 12.0326 2.3848 345.0470 344.7916 350.3648 10.5053 13.7014 351.1084 339.2551 357.2830 14.8896 320.6685 49.8830 351.9927 6.2706 356.1066 299.1536 96.5323 349.2330 342.0467 26.1695 355.8059 342.1078 27.8136 51.1344 22.9832 322.3528 331.5536 73.8298 256.0717 349.1500 338.2202 352.1791 330.5335 358.4869 357.4075 25.8015 0.9187 350.5681 344.5128 13.5638 355.8513 0.6293 8.7714 8.9429 15.6502 13.0856 349.0332 334.2203 313.5157 
-10.8137 90.0938 104.1615 357.7182 347.1003 187.5374 358.7401 349.9112 2.4263 1.8110 11.9702 2.3414 345.4300 345.2751 350.5509 10.4288 13.7983 351.1878 339.3429 357.2492 15.1329 320.6415 50.2773 351.6419 6.7623 355.7366 298.5584 96.7482 349.5093 343.1296 26.3996 355.7820 342.2007 28.8745 50.8427 21.1908 323.1163 332.4644 73.2259 255.7606 349.3950 338.5574 352.2864 331.5562 358.2259 357.9343 24.8094 1.4332 350.6284 346.0989 13.5483 356.1516 0.9549 8.2108 9.0620 17.0755 13.5240 349.5031 333.1212 313.7163 
-10.7935 89.7157 102.7997 357.9139 347.6111 187.4383 358.7620 349.8464 2.4096 1.7197 11.9797 2.3340 346.0334 345.7981 350.8349 10.2179 13.8858 351.3493 339.3452 357.1990 15.4194 320.8816 50.5415 351.2313 7.1336 355.4888 297.7859 97.1662 350.1489 344.4506 26.6260 355.7599 342.2399 30.0083 50.5887 19.4166 323.7723 333.3425 72.3596 255.9537 349.3974 338.9929 352.1511 332.5773 358.9196 358.8167 25.7797 1.8243 354.4513 348.3351 13.4279 356.2675 1.4531 7.2679 9.2135 18.9301 14.4080 349.7811 332.1674 314.0450 
-10.8026 89.3708 101.6038 358.0060 347.8468 187.3092 358.6941 349.6914 2.3323 1.5170 11.7883 2.2998 346.6044 346.5571 351.0888 10.2456 13.7266 351.4542 339.3610 357.1698 15.6124 320.9476 50.6274 351.0764 7.5873 355.1154 297.1550 97.3241 349.8401 345.5849 26.8843 355.7056 342.1853 30.7909 50.3126 18.1683 324.4439 334.3106 71.4104 255.6929 349.4532 339.5218 352.4910 332.6311 358.4840 357.9200 27.6354 1.1414 354.9476 347.0648 14.5877 356.2450 1.3005 6.0734 9.4718 21.2478 14.9137 350.4585 331.0488 314.7385 
-10.8458 89.0681 100.3707 357.8671 348.2532 187.1873 358.4430 349.7452 2.2089 1.2694 11.5641 2.2357 347.2138 347.2699 351.3394 10.1365 13.5699 351.5800 339.3017 357.0986 16.0169 321.3048 50.9717 350.5033 8.1098 354.7215 296.5718 97.9846 350.0585 346.4572 27.2340 355.6332 342.2585 31.7786 49.9576 16.5850 325.0891 335.2545 70.3512 255.8970 349.1664 340.2106 352.4718 332.9752 358.0526 357.5822 29.0138 0.2122 356.9664 347.8049 16.7721 356.0370 1.0379 4.4838 9.4662 24.3139 16.3816 351.3626 330.0488 315.3385 
-10.8915 88.8135 99.1673 357.5359 348.6525 187.1512 357.8442 349.7496 2.0791 1.2358 11.5949 2.1371 347.7272 347.7121 351.5015 10.0757 13.4472 351.6504 339.0370 356.9725 16.4385 322.1725 51.2990 349.4991 8.6277 354.3030 295.8304 98.2850 350.2094 347.6896 27.5665 355.5932 342.3450 32.7439 49.2410 15.1138 325.8720 336.3388 69.3209 255.4059 348.9152 340.9870 352.2817 333.6250 357.1406 357.0484 29.7997 0.2796 356.7260 347.1020 17.2365 355.5953 0.6187 3.4309 9.8705 27.5306 16.8995 352.3922 329.3245 316.0350 
-10.9803 88.6179 98.0870 356.8825 348.6985 186.9334 357.0640 349.5383 1.8920 1.0390 11.7634 2.0608 347.9470 347.6504 351.6277 10.3029 13.6133 351.7219 338.8583 356.8455 17.1036 323.2535 51.6688 347.7769 9.2462 353.8165 295.2208 98.6494 350.3838 348.9030 27.9420 355.5463 342.4317 33.4929 48.4486 14.0242 326.6767 337.4311 68.1345 255.2504 348.6121 342.3422 351.6403 333.9640 356.3736 356.6622 30.5371 0.9603 357.4899 346.7834 17.6061 354.5871 359.4715 2.6321 10.6419 31.2493 17.2038 353.5745 328.9354 316.7646 
-11.0695 88.4411 96.9995 356.2909 348.8549 186.8597 356.3889 349.4199 1.6588 0.8134 11.9828 1.9298 348.2400 347.5862 351.7431 10.2774 13.7872 351.7961 338.7006 356.7159 17.6249 324.1224 51.8660 346.2324 9.8034 353.4160 294.4717 98.9542 350.8383 350.0380 28.2504 355.5372 342.6405 34.6344 47.5571 12.5804 327.2898 338.3286 66.7930 255.4248 348.2860 343.0556 350.8983 334.6777 355.5310 356.4293 30.9201 1.6472 358.1167 346.3590 17.7391 353.7376 358.4254 2.3992 11.8675 34.8335 16.6116 354.7805 329.2429 317.5447 
-11.1461 88.3076 95.9454 355.8303 348.9845 186.8616 355.9030 349.3018 1.4772 0.5607 12.2271 1.7714 348.2795 347.5359 351.8638 10.5170 13.9443 351.8791 338.4013 356.5743 18.0067 325.2654 51.9138 344.6228 10.2073 353.1221 293.7697 98.6646 350.6456 349.9710 28.5653 355.5529 343.0642 35.9016 46.5474 10.7698 327.7621 339.0716 65.5278 255.9406 347.8602 343.3934 350.2747 335.5603 354.8586 356.2594 31.0571 2.0496 358.6163 345.9539 18.1786 352.9225 357.1523 1.4060 12.7600 38.7074 16.3855 355.7252 330.1614 318.4549 
-11.1869 88.1927 94.8775 355.4954 349.3192 186.6710 355.7355 349.3035 1.3584 0.1153 12.6177 1.7361 348.2243 347.4745 352.0143 10.8069 14.1080 351.9964 338.4026 356.5047 18.3512 325.9253 52.0660 343.0515 10.8201 352.5977 293.2168 97.8652 350.2944 349.6955 28.8836 355.6346 343.7835 37.4217 45.4536 8.5633 328.1898 339.7544 64.3777 256.0344 347.7996 343.9694 349.9306 336.7217 355.3866 356.7004 31.0808 1.4198 358.9835 345.4949 18.2692 352.2610 355.9167 0.9326 13.8722 42.5408 15.7160 356.8549 331.2359 319.3016 
-11.2421 88.1113 93.8047 355.3587 349.7150 186.5788 355.7315 349.5029 1.3161 359.7841 12.6980 1.7332 347.9900 347.8188 352.0682 11.2550 13.9297 351.9948 338.1860 356.4415 18.3243 326.4896 52.0710 342.3054 11.2189 352.2723 291.9692 98.6234 350.4249 350.9420 29.1344 355.7180 344.1434 38.4830 44.8989 6.7759 328.2881 340.2045 62.9606 256.0572 347.8179 344.0585 349.6963 338.0563 355.7959 357.3225 30.8648 1.1456 358.5563 344.7633 18.0324 351.7154 354.7566 0.5741 15.4166 46.0097 14.1914 357.0675 332.3519 320.0777 
-11.2594 88.0653 92.6885 355.3303 350.1919 186.4058 355.8175 349.6987 1.3283 359.5252 12.8562 1.7575 347.9966 347.9734 352.2394 11.3457 14.0876 352.1274 338.2770 356.4512 18.4511 326.8855 52.4578 340.9407 11.9047 351.5718 291.3480 99.0587 350.6389 352.1200 29.2661 355.7853 344.4134 39.4448 44.6058 5.0658 328.3122 340.5935 61.7550 256.2582 347.9004 344.1980 349.7504 339.4885 356.3908 357.7611 30.5843 1.0335 358.7862 344.3695 17.8366 351.3689 353.7271 0.9603 17.6508 49.1189 12.9339 355.7198 333.5936 319.1385 
-11.2734 88.0712 91.5943 355.3830 350.6988 186.3499 355.8683 350.0865 1.3445 359.4628 12.7707 1.7603 348.1908 348.1822 352.3759 11.0441 14.3029 352.2303 338.2071 356.4313 18.3076 327.1730 52.6093 340.1653 12.4669 351.0318 290.3693 99.3835 351.1799 353.3438 29.2105 355.8654 344.5042 40.5445 44.1237 3.3178 328.3765 341.0171 60.7196 256.5257 347.6039 344.0020 349.9635 340.9338 356.7490 357.9024 30.3255 0.7211 358.6215 343.8586 17.6922 351.0853 352.7518 0.9419 19.5031 51.9175 11.7763 354.6931 334.4257 318.3559 
